<?xml version="1.0" encoding="utf-8"?>
<!-- Generator: Adobe Illustrator 26.0.1, SVG Export Plug-In . SVG Version: 6.00 Build 0)  -->
<svg version="1.1" id="Layer_1" xmlns="http://www.w3.org/2000/svg" xmlns:xlink="http://www.w3.org/1999/xlink" x="0px" y="0px"
	 viewBox="0 0 216 216" style="enable-background:new 0 0 216 216;" xml:space="preserve">
<style type="text/css">
	.st0{clip-path:url(#SVGID_00000176752632775986115910000012356903886966951322_);}
	.st1{fill:#43BD8E;}
	.st2{clip-path:url(#SVGID_00000068669294425032864220000003432300027471170708_);}
	.st3{fill:#F7F7F8;}
</style>
<g id="Group_9" transform="matrix(1, -0.017, 0.017, 1, 8.024, 11.713)">
	<g>
		<defs>
			
				<rect id="SVGID_1_" x="89.75" y="88.69" transform="matrix(0.9999 -0.017 0.017 0.9999 -1.6725 1.7367)" width="23.16" height="21.14"/>
		</defs>
		<clipPath id="SVGID_00000178898646443429472530000007678506665703106235_">
			<use xlink:href="#SVGID_1_"  style="overflow:visible;"/>
		</clipPath>
		<g id="Group_4" style="clip-path:url(#SVGID_00000178898646443429472530000007678506665703106235_);">
			<path id="Path_4" class="st1" d="M110.55,88.84c-0.01-0.02-0.03-0.04-0.04-0.06c-0.09,0.42-1.56,6.58-10.28,7.45
				c-8.99,0.9-10.44,9.44-10.44,9.44c1.71,1.91,3.99,3.22,6.5,3.74c7.19,1.75,14.44-2.65,16.2-9.85c0.2-0.81,0.32-1.65,0.36-2.48
				c0.01-0.2,0.02-0.41,0.02-0.61C112.89,93.75,112.08,91.09,110.55,88.84"/>
			<path id="Path_5" class="st1" d="M110.55,88.84c-0.01-0.02-0.03-0.04-0.04-0.06c-0.09,0.42-1.56,6.58-10.28,7.45
				c-8.99,0.9-10.44,9.44-10.44,9.44c1.71,1.91,3.99,3.22,6.5,3.74c7.19,1.75,14.44-2.65,16.2-9.85c0.2-0.81,0.32-1.65,0.36-2.48
				c0.01-0.2,0.02-0.41,0.02-0.61C112.89,93.75,112.08,91.09,110.55,88.84z"/>
		</g>
	</g>
</g>
<g id="Group_8" transform="matrix(1, -0.017, 0.017, 1, 0, 0.734)">
	<g>
		<defs>
			
				<rect id="SVGID_00000171713399532314334910000012858815266531944620_" x="93.02" y="93.32" transform="matrix(0.9999 -0.017 0.017 0.9999 -1.7644 1.8048)" width="24.54" height="22.75"/>
		</defs>
		<clipPath id="SVGID_00000181072546882541175430000012735803769509817733_">
			<use xlink:href="#SVGID_00000171713399532314334910000012858815266531944620_"  style="overflow:visible;"/>
		</clipPath>
		<g id="Group_6" style="clip-path:url(#SVGID_00000181072546882541175430000012735803769509817733_);">
			<path id="Path_6" class="st3" d="M106.57,93.36c-7.4-0.06-13.45,5.88-13.51,13.29c-0.03,3.48,1.3,6.84,3.7,9.36
				c0.03-0.14,1.56-8.51,10.47-9.39c8.73-0.86,10.2-7.01,10.29-7.43C115.04,95.57,110.95,93.39,106.57,93.36"/>
			<path id="Path_7" class="st3" d="M106.57,93.36c-7.4-0.06-13.45,5.88-13.51,13.29c-0.03,3.48,1.3,6.84,3.7,9.36
				c0.03-0.14,1.56-8.51,10.47-9.39c8.73-0.86,10.2-7.01,10.29-7.43C115.04,95.57,110.95,93.39,106.57,93.36z"/>
		</g>
	</g>
</g>
<circle id="Ellipse_3" cx="112.21" cy="98.45" r="1.75"/>
<circle id="Ellipse_4" cx="106.49" cy="115.22" r="1.75"/>
</svg>
