<svg xmlns="http://www.w3.org/2000/svg" width="3.98in" height="4.22in" viewBox="0 0 286.9 304.05"><path d="M340.88,131.24c-7.07-27.12-33.83-46.72-63.63-46.72-22.12,0-41.67,10.28-53.52,26-11.86-15.72-31.41-26-53.53-26-29.79,0-56.55,19.6-63.63,46.72-7.14,27.38,7.49,55.71,24.32,77.31,17.55,22.53,40.49,41.14,64.68,57.19q13.69,9.09,28.1,17.2h.11q14.37-8.13,28.1-17.2c24.19-16.05,47.13-34.66,64.68-57.19C333.39,187,348,158.62,340.88,131.24Z" transform="translate(-72.55 -70.58)" fill="none" stroke="#000" stroke-miterlimit="10" stroke-width="3.87"/><path d="M148.46,97.81c.56-2.78-2.08-7.63-4.13-10.64-4.63-6.77-13.18-13.23-21.45-14.42-16.9-2.43-39.66,14.47-44.5,30.74-1.94,6.52,1,16.09,11.18,17.09,7.9.78,16.55-2.22,24.18-9.46,2.85-2.7,9.89-2.36,13.42-2.25,5.51.17,8.91.09,12.91-1.82C145.21,104.59,147.5,102.57,148.46,97.81Z" transform="translate(-72.55 -70.58)" fill="#fff" stroke="#000" stroke-miterlimit="10" stroke-width="3.87"/><path d="M310.64,132.58c-4.41-16.65-11.3-11.12-14.43-7.38a39.77,39.77,0,0,0-32-16.5c-22.35,0-40.47,19-40.47,42.34s18.12,42.34,40.47,42.34,40.48-18.95,40.48-42.34c0-.79-.08-1.56-.12-2.34C308.9,149,314.46,147,310.64,132.58Z" transform="translate(-72.55 -70.58)" fill="none" stroke="#000" stroke-miterlimit="10" stroke-width="3.87"/><path d="M226.17,126.89" transform="translate(-72.55 -70.58)" fill="none" stroke="#000" stroke-miterlimit="10" stroke-width="3.87"/><path d="M284.14,84.87a66.17,66.17,0,0,1,48.27,28c12.64,18.32,12.5,41,4.47,61.36-4.93,12.48-12.19,23.89-20.32,34.32-1.89-10-9-18.53-11.79-28.14-3.33-11.46.29-24.7-.21-31.71-1.63-22.76-39.95-27-52.67-45.11C251.89,103.59,249.92,82,284.14,84.87Z" transform="translate(-72.55 -70.58)" fill="#fff" stroke="#000" stroke-miterlimit="10" stroke-width="3.87"/><path d="M310.64,132.58c-4.41-16.65-11.3-11.12-14.43-7.38a39.77,39.77,0,0,0-32-16.5c-22.35,0-40.47,19-40.47,42.34s18.12,42.34,40.47,42.34,40.48-18.95,40.48-42.34c0-.79-.08-1.56-.12-2.34C308.9,149,314.46,147,310.64,132.58Z" transform="translate(-72.55 -70.58)" fill="#fff" stroke="#000" stroke-miterlimit="10" stroke-width="3.87"/><path d="M223.73,110.52s8.92,20.77.05,41.94c-2.67,6.36,22.28,22.15,25.88,31.27s-21.2,33.87-40.2,28.72c-13.88-3.76-56.15-35.77-56.15-35.77" transform="translate(-72.55 -70.58)" fill="#fff" stroke="#000" stroke-miterlimit="10" stroke-width="3.87"/><path d="M264.52,105.38C260,114,253.9,120.85,242.88,126.89c-5.49,3-19.15,8.13-23.1-3.7-2.15-6.43,5.58-15.09,9.34-18.91A67.24,67.24,0,0,1,270.8,84.81S269.11,96.61,264.52,105.38Z" transform="translate(-72.55 -70.58)" fill="#fff" stroke="#000" stroke-miterlimit="10" stroke-width="3.87"/><path d="M288,189.34S269,198.76,221.59,210c0,0-42.05-17-57.68-28.47,0,0,.39-14.65-10.34-19.2,0,0-11.28-19.88-26.14-8s.86,42.14,23.46,43.29c0,0,53.08,41.95,66.49,42.71,10.76.62,65.84-5.34,77.49-12.32,8.07-4.84,20-15.34,19.78-22.17C314.38,198.66,308.41,185.24,288,189.34Z" transform="translate(-72.55 -70.58)" fill="#fff" stroke="#000" stroke-miterlimit="10" stroke-width="3.96"/><text transform="translate(0.85 281.9)" font-size="75.58" font-family="Rockwell-Regular, Rockwell">Petland</text></svg>