<?xml version="1.0" encoding="utf-8"?>
<!-- Generator: Adobe Illustrator 25.4.1, SVG Export Plug-In . SVG Version: 6.00 Build 0)  -->
<svg version="1.1" id="Layer_1" xmlns="http://www.w3.org/2000/svg" xmlns:xlink="http://www.w3.org/1999/xlink" x="0px" y="0px"
	 viewBox="0 0 411.1 112.3" style="enable-background:new 0 0 411.1 112.3;" xml:space="preserve">
<style type="text/css">
	.st0{fill:#FFFFFF;stroke:#000000;stroke-width:0.7394;stroke-miterlimit:9.992;}
	.st1{fill:#FFFFFF;stroke:#000000;stroke-width:0.3697;stroke-miterlimit:9.992;}
	.st2{fill:#FFFFFF;}
	.st3{fill:#FFFFFF;stroke:#000000;stroke-width:0.5496;stroke-miterlimit:9.992;}
	.st4{font-family:'MrsEavesOT-Bold';}
	.st5{font-size:22.7717px;}
	.st6{letter-spacing:1;}
	.st7{fill:none;stroke:#000000;stroke-width:1.3489;stroke-miterlimit:9.992;}
	.st8{fill:#FFFFFF;stroke:#000000;stroke-width:1.3489;stroke-miterlimit:9.992;}
	.st9{fill:#FFFFFF;stroke:#000000;stroke-width:1.3789;stroke-miterlimit:9.992;}
	.st10{font-family:'Rockwell-Regular';}
	.st11{font-size:26.3389px;}
	.st12{font-family:'BrandonGrotesque-Bold';}
	.st13{font-size:47.9015px;}
	.st14{letter-spacing:-1;}
</style>
<path class="st0" d="M67.9,16.5c0,8-5.9,21.7-13.9,21.7S38.9,24.5,38.9,16.5s14.5-16,14.5-16S67.9,8.5,67.9,16.5z"/>
<path class="st0" d="M61.6,26c0,4.5-3.3,12.2-7.8,12.2s-8.5-7.7-8.5-12.2s8.1-9,8.1-9S61.6,21.5,61.6,26z"/>
<path class="st0" d="M59.5,41.7c-0.3-0.6,2.1-3.1,2.1-3.7c0.1-1.9,3.1-2.3,4.1-3.9C71.1,26,71.3,24,76.1,23.3
	c1.9-0.4,3.8-0.5,5.7-0.1c4.1,1,4.6,4.7,7.2,4c2-0.5,4-0.8,6-0.9c0.9,0,1.5,1.8,1.7,2.9c0.4,2.6,0.4,5-1.7,6.7
	c-4,3.3-10.1,5.3-12.9,6.5c-1.6,0.7-2.6,2.5-3.5,3.7c-3.2,4-7.8,6.5-12.1,9.2c-0.2,0.2-0.5,0.2-0.8,0.3c-1.7-3.8-3.3-7.5-5-11.3
	C60.3,43.5,59.9,42.6,59.5,41.7z"/>
<path class="st0" d="M42.1,35.8c0,0-3.2-8.9-9.1-11.4c0,0,1.2-3.1-2.2-6.1c-2.1,1-3.8,2.6-5,4.6c-2.3-0.4-5-0.5-7.1,0.6
	c-1.1,0.7-1.9,1.6-2.4,2.7c-1,1.8-0.7,1.7-1.3,2.3s-1.4,0.8-2.6,1.3c-0.7,0.3,0,7,1.9,8.7c4,3.6,11.3,4.7,13,6.7
	C35.8,55.2,42.9,56,42.9,56"/>
<path class="st0" d="M45.3,55.9c-0.4-0.4-3.7,0-4.3,0c-1.5,0-3,0.1-4.5,0.2c-3,0.2-6,0.5-9,1c-3.9,0.6-8.1,1.6-12,2.6
	c-3.6,1-7.1,2.2-10.5,3.7c-1,0.5-3,1.4-3.3,2.8c-0.3,1.5,0.7,2.8,1.9,3.6c1.4,1,3,1.9,4.6,2.5c3.1,1.3,6.4,1.8,9.7,1.6
	c1.7-0.1,3.3-0.4,4.9-0.8c0.8-0.2,1.6-0.6,2.3-1.1c-1.2,2.7,0,5.9,2.7,7.1c0.2,0.1,0.5,0.2,0.7,0.3c4.2,1.3,7.2-1.4,9.5-3.9
	c3.6-4,6.6-8.6,8.7-13.6c0.3-0.7,0.6-1.5,1-2.2s0.4-0.9-0.1-1.6C46.9,57.5,46.1,56.7,45.3,55.9z"/>
<path class="st0" d="M46.4,60.4"/>
<path class="st0" d="M25,76.9"/>
<path class="st1" d="M10.3,73.3c7-2.1,29.9-13.8,34-16"/>
<path class="st1" d="M3.5,70c4.9-2.3,26-8.9,39.1-12.7"/>
<path class="st1" d="M25,72.2c0,0,3.6-4.6,18.5-13.5"/>
<path class="st1" d="M2.3,65.3c0,0,10.2-5.7,40.3-8.5"/>
<path class="st1" d="M26.8,78.8c0,0,2.6-7.4,18.2-19.6"/>
<path class="st1" d="M31.3,79.9c0,0,6-5.2,14-19.5"/>
<path class="st0" d="M58.7,55.2c0,0,34,2.5,47.2,14c4,3.5-13.4,4.4-17.6-3.4c0,0-15.5,5.4-23.5-2.3S58.7,55.2,58.7,55.2z"/>
<path class="st2" d="M84.9,66.1C85.5,67,93,78.9,99.7,77.3c5.5-1.3-12.4-13.5-12.4-13.5"/>
<path d="M85,66.1c1.8,2.8,3.9,5.3,6.3,7.6c1.2,1.1,2.5,2.1,4,2.8c1.4,0.7,3.1,0.9,4.6,0.5c0.3-0.1,0.5-0.3,0.5-0.6
	c0-0.4-0.2-0.7-0.3-1c-0.4-0.7-0.9-1.3-1.5-1.9c-1.1-1.2-2.4-2.3-3.6-3.3c-2.5-2.2-5.1-4.2-7.7-6.2l0-0.1c2.8,1.7,5.6,3.7,8.1,5.7
	c1.3,1,2.5,2.2,3.7,3.4c0.6,0.6,1.1,1.3,1.5,2c0.2,0.4,0.4,0.9,0.4,1.3c0,0.3-0.1,0.5-0.3,0.7c-0.1,0.1-0.2,0.2-0.3,0.2
	c-0.1,0.1-0.2,0.1-0.3,0.2c-1.7,0.4-3.5,0.2-5-0.6c-1.5-0.8-2.9-1.8-4.1-2.9C88.7,71.6,86.6,68.9,85,66.1L85,66.1z"/>
<path class="st2" d="M80.3,65.5c0.3,1,5.3,13.7,11.8,13.8c5.3,0.1-9.2-15.3-9.2-15.3"/>
<path d="M80.3,65.5c1.2,3,2.7,5.8,4.6,8.4c0.9,1.3,2,2.5,3.2,3.5c1.2,1,2.7,1.6,4.2,1.6c0.3-0.1,0.5-0.2,0.6-0.5c0-0.3,0-0.7-0.2-1
	c-0.3-0.7-0.7-1.4-1.1-2.1c-0.9-1.3-1.8-2.6-2.8-3.9c-1.9-2.6-4-5-6-7.5l0.1,0c2.3,2.2,4.5,4.6,6.6,7.1c1,1.3,2,2.6,2.8,4
	c0.4,0.7,0.8,1.5,1.1,2.2c0.2,0.4,0.2,0.9,0.2,1.3c0,0.1-0.1,0.3-0.1,0.4c-0.1,0.1-0.1,0.2-0.3,0.3c-0.1,0.1-0.2,0.2-0.3,0.2
	c-0.1,0-0.2,0.1-0.4,0.1c-1.7,0-3.3-0.6-4.6-1.8c-1.2-1.1-2.3-2.3-3.2-3.6C82.9,71.6,81.4,68.7,80.3,65.5L80.3,65.5z"/>
<path class="st2" d="M76.5,64.5c0.2,0.9,3.1,13.3,9.1,14.6c4.9,1.1-6.5-15.5-6.5-15.5"/>
<path d="M76.6,64.5c0.7,2.9,1.8,5.8,3.2,8.5c0.7,1.3,1.5,2.6,2.5,3.7c0.9,1.1,2.2,1.9,3.6,2.2c0.3,0,0.5-0.1,0.6-0.3
	c0.1-0.3,0-0.7-0.1-1c-0.2-0.7-0.4-1.4-0.7-2.1c-0.6-1.4-1.3-2.7-2.1-4c-1.4-2.7-3-5.2-4.5-7.9h0.1c1.9,2.4,3.6,4.9,5.1,7.5
	c0.8,1.3,1.5,2.7,2.1,4.1c0.3,0.7,0.6,1.5,0.7,2.2c0.1,0.4,0.1,0.9,0,1.3c0,0.1-0.1,0.2-0.2,0.3c-0.1,0.1-0.2,0.2-0.3,0.3
	c-0.1,0.1-0.2,0.1-0.4,0.1c-0.1,0-0.2,0-0.3,0c-1.6-0.4-2.9-1.2-3.9-2.5c-1-1.2-1.8-2.5-2.5-3.8C78.1,70.4,77.1,67.5,76.6,64.5
	L76.6,64.5z"/>
<path class="st2" d="M72.7,62.5c0,0,2.7,13.3,8.2,15.5c2.9,1.1-4.7-15.2-4.7-15.2"/>
<path d="M72.7,62.5c0.7,2.8,1.6,5.6,2.7,8.2c0.6,1.3,1.2,2.6,2,3.8c0.8,1.2,1.8,2.2,3,2.9c0.2,0.1,0.5,0.2,0.7,0.3
	c0.1-0.2,0.1-0.5,0-0.7c-0.1-0.7-0.3-1.3-0.5-2c-0.4-1.4-0.9-2.7-1.4-4.1c-1-2.7-2.1-5.4-3.1-8.1h0.1c1.4,2.6,2.6,5.2,3.7,7.9
	c0.6,1.3,1,2.7,1.4,4.1c0.2,0.7,0.4,1.4,0.5,2.2c0,0.2,0,0.4,0,0.6c0,0.3-0.2,0.5-0.4,0.7c-0.3,0.1-0.5,0.1-0.8-0.1L80.1,78
	c-1.3-0.8-2.3-1.9-3.1-3.2c-0.8-1.2-1.4-2.6-2-3.9c-1.1-2.7-1.9-5.5-2.4-8.4L72.7,62.5z"/>
<path class="st2" d="M69,61.1c0,0,2.4,13.4,7.8,15.8c2.9,1.2-4.1-14.9-4.1-14.9"/>
<path d="M69,61.1c0.7,2.8,1.5,5.5,2.6,8.2c0.5,1.3,1.2,2.6,1.9,3.8c0.7,1.2,1.6,2.3,2.7,3.1c0.1,0.1,0.3,0.2,0.4,0.2
	c0.1,0.1,0.3,0.1,0.4,0.2c0.1,0,0,0,0,0c0-0.1,0.1-0.3,0.1-0.4c0-0.7-0.1-1.3-0.3-2c-0.3-1.4-0.8-2.7-1.2-4.1
	c-0.9-2.7-1.9-5.4-2.9-8.1c1.3,2.6,2.4,5.2,3.4,7.9c0.5,1.3,1,2.7,1.3,4.1c0.2,0.7,0.3,1.5,0.4,2.2c0,0.2,0,0.5-0.1,0.7
	c-0.1,0.2-0.2,0.3-0.3,0.4c-0.2,0.1-0.3,0.1-0.5,0.1c-0.2-0.1-0.4-0.1-0.6-0.2c-0.2-0.1-0.3-0.2-0.5-0.3c-1.2-0.9-2.2-2-2.9-3.3
	c-0.7-1.3-1.3-2.6-1.8-4C70.1,66.8,69.4,63.9,69,61.1z"/>
<path class="st2" d="M63.8,59.6c0,0,0,11.9,6,12.5l-2.4-9.9"/>
<path d="M63.9,59.6c0.1,2.5,0.5,4.9,1.3,7.3c0.4,1.2,1,2.2,1.7,3.2c0.7,0.9,1.8,1.5,3,1.6l-0.4,0.4c-0.4-1.6-0.8-3.3-1.2-5
	s-0.7-3.3-0.9-5h0.1c0.5,1.6,1,3.2,1.5,4.9c0.5,1.6,0.9,3.3,1.2,5l0.1,0.5l-0.5-0.1c-1.3-0.2-2.5-0.9-3.3-2c-0.8-1-1.3-2.2-1.7-3.4
	c-0.4-1.2-0.6-2.4-0.8-3.7C63.9,62.1,63.8,60.9,63.9,59.6L63.9,59.6z"/>
<path class="st2" d="M66.7,60.4c0,0,0.6,11.6,5.5,13.6c0.8,0.3,0.3-2,0.3-2l-2.9-11.1"/>
<path d="M66.7,60.4c0.2,1.2,0.3,2.4,0.6,3.6c0.2,1.2,0.5,2.4,0.9,3.5c0.3,1.1,0.8,2.2,1.3,3.3c0.5,1,1.3,1.9,2.2,2.6
	c0.1,0.1,0.2,0.2,0.4,0.2c0.1,0,0.2,0.1,0.2,0.1c0,0-0.1,0-0.1,0c0,0,0-0.1,0-0.1c0-0.1,0-0.2,0-0.4c0-0.6-0.1-1.2-0.2-1.7
	c-0.3-1.2-0.6-2.3-0.9-3.5c-0.6-2.4-1.1-4.7-1.6-7.1c0.8,2.3,1.4,4.6,2.1,7c0.3,1.2,0.7,2.3,1,3.5c0.2,0.6,0.3,1.2,0.3,1.9
	c0,0.2,0,0.4,0,0.5c0,0.1-0.1,0.2-0.1,0.3c-0.1,0.2-0.3,0.2-0.5,0.2c-0.2,0-0.4-0.1-0.6-0.2c-0.1-0.1-0.3-0.1-0.4-0.2
	c-1-0.7-1.9-1.7-2.4-2.9c-0.6-1.1-1-2.3-1.3-3.5C67,65.3,66.7,62.8,66.7,60.4z"/>
<path class="st0" d="M71.5,41c-1.1-4.5-5.2-7.7-9.8-7.7c-3.3,0-6.4,1.6-8.3,4.3c-1.9-2.7-5-4.3-8.3-4.3c-4.6,0-8.7,3.2-9.8,7.7
	c-1.1,4.5,1.1,9.2,3.8,12.8c2.8,3.7,6.2,6.9,10,9.4c1.4,1,2.9,1.9,4.3,2.8l0,0c1.5-0.9,2.9-1.8,4.3-2.8c3.8-2.6,7.2-5.8,10-9.4
	C70.4,50.2,72.6,45.5,71.5,41z"/>
<path class="st0" d="M67.7,42.8c-0.9-3.6-4.1-6.1-7.8-6.1c-2.6,0-5,1.3-6.5,3.4c-1.5-2.1-3.9-3.4-6.5-3.4c-3.7,0-6.8,2.5-7.7,6.1
	c-0.9,3.6,0.9,7.3,3,10.1c2.2,2.9,4.9,5.4,7.9,7.4c1.1,0.8,2.3,1.5,3.4,2.2l0,0c1.2-0.7,2.3-1.4,3.4-2.2c3-2,5.7-4.6,7.9-7.4
	C66.8,50.1,68.6,46.4,67.7,42.8z"/>
<path class="st0" d="M68.4,25.8c0.2-1.3,1.1-2.4,2.3-2.8c3.4-1.5,5.1-0.9,5.7,0.8c0.5,1.3-0.2,3.9-1.1,5.1c-0.7,0.9-1.6,1.7-2.7,2.2
	c-0.6,0.4-1.3,0.5-1.9,0.4c-1.2-0.4-1.7-1.9-1.9-3C68.5,27.6,68.4,26.7,68.4,25.8z"/>
<path class="st3" d="M55.7,42.6c0,1.8-1,2.7-2.3,2.7c-1.3,0-2.3-0.9-2.3-2.7c0-1.8,2.3-4.4,2.3-4.4S55.7,40.8,55.7,42.6z"/>
<text transform="matrix(1 0 0 1 0.5396 99.7598)" class="st4 st5">P</text>
<text transform="matrix(1 0 0 1 13.769 99.7598)" class="st4 st5">E</text>
<text transform="matrix(1 0 0 1 28.3672 99.7598)" class="st4 st5">T</text>
<text transform="matrix(1 0 0 1 42.8257 99.7598)" class="st4 st5 st6">L</text>
<text transform="matrix(1 0 0 1 58.3032 99.7598)" class="st4 st5">A</text>
<text transform="matrix(1 0 0 1 73.3311 99.7598)" class="st4 st5">ND</text>
<path class="st7" d="M404.6,26.2c-2.5-9.4-11.8-16.3-22.2-16.3c-7.3-0.1-14.2,3.3-18.7,9.1c-4.5-5.8-11.4-9.1-18.6-9.1
	c-10.4,0-19.7,6.8-22.2,16.3s2.6,19.4,8.5,27c6.1,7.8,14.1,14.3,22.5,19.9c3.2,2.1,6.5,4.1,9.8,6l0,0c3.3-1.9,6.6-3.9,9.8-6
	C382,67.5,390,61,396.1,53.2C402,45.6,407.1,35.8,404.6,26.2z"/>
<path class="st8" d="M337.6,14.6c0.2-1-0.7-2.7-1.4-3.7c-1.7-2.6-4.4-4.4-7.5-5c-5.9-0.8-13.8,5-15.5,10.7c-0.8,2.4,0.4,5,2.8,5.8
	c0.4,0.1,0.7,0.2,1.1,0.2c3.2,0.2,6.2-1,8.4-3.3c1-0.9,3.4-0.8,4.7-0.8c1.5,0.2,3.1,0,4.5-0.6C336.5,16.9,337.3,16.2,337.6,14.6z"/>
<path class="st7" d="M394.1,26.7c-1.5-5.8-4-3.9-5-2.6c-2.6-3.6-6.8-5.7-11.2-5.8c-7.8,0-14.1,6.6-14.1,14.8s6.3,14.8,14.1,14.8
	S392,41.3,392,33.1c0-0.3,0-0.5,0-0.8C393.5,32.4,395.4,31.7,394.1,26.7z"/>
<path class="st7" d="M364.7,24.7"/>
<path class="st8" d="M384.9,10.1c6.8,0.6,12.9,4.2,16.8,9.8c4.4,6.4,4.4,14.3,1.6,21.4c-1.8,4.3-4.2,8.4-7.1,12
	c-0.7-3.5-3.1-6.5-4.1-9.8c-1.2-4,0.1-8.6-0.1-11.1c-0.6-7.9-13.9-9.4-18.4-15.7C373.6,16.6,372.9,9.1,384.9,10.1z"/>
<path class="st8" d="M394.1,26.7c-1.5-5.8-4-3.9-5-2.6c-2.6-3.6-6.8-5.7-11.2-5.8c-7.8,0-14.1,6.6-14.1,14.8s6.3,14.8,14.1,14.8
	S392,41.3,392,33.1c0-0.3,0-0.5,0-0.8C393.5,32.4,395.4,31.7,394.1,26.7z"/>
<path class="st8" d="M363.8,19c0,0,3.1,7.2,0,14.6c-0.9,2.2,7.8,7.7,9,10.9c1.2,3.2-7.4,11.8-14,10C354,53.2,339.3,42,339.3,42"/>
<path class="st8" d="M378,17.2c-1.7,3.2-4.3,5.9-7.5,7.5c-1.9,1-6.7,2.8-8.1-1.3c-0.7-2.2,1.9-5.3,3.3-6.6c3.9-3.9,9-6.3,14.5-6.8
	C379.8,12.5,379.1,14.9,378,17.2z"/>
<path class="st9" d="M386.2,46.5c0,0-6.6,3.3-23.2,7.2c0,0-14.6-5.9-20.1-9.9c0,0,0.1-5.1-3.6-6.7c0,0-3.9-6.9-9.1-2.8
	s0.3,14.7,8.2,15.1c0,0,18.5,14.6,23.2,14.9c3.7,0.2,23-1.9,27-4.3c2.8-1.7,7-5.3,6.9-7.7C395.4,49.9,393.3,45,386.2,46.5z"/>
<text transform="matrix(1 0 0 1 311.4404 103.3169)" class="st10 st11">Petland</text>
<path d="M136,47.3h3l0,0v33.6l0,0h-3c-0.5,0-0.9-0.4-0.9-0.9l0,0V48.2C135.2,47.7,135.6,47.3,136,47.3z"/>
<text transform="matrix(1 0 0 1 133.3433 80.8452)" class="st12 st13 st14">P</text>
<text transform="matrix(1 0 0 1 160.0718 80.8452)" class="st12 st13">etland</text>
<ellipse cx="148.4" cy="58.2" rx="9" ry="8.1"/>
<path class="st2" d="M132.3,62.9c2.4-0.5,4.7-1.2,7-2c2-1.1,0.6-8.7,3-8.7l0.5,2.3c1-0.2,2.1-0.1,3.1,0.1c1.1,0.3,1,2.2,1.3,2.2
	s0.7,0.1,1.2,0.1c0.3,0,1.9-0.1,2,0.2c0.3,0.6,0.3,1.3,0.1,2c-0.3,0.8-1,1.4-1.8,1.6c-1.3,0.3-2.6,0.8-3.9,1.4
	c-0.6,0.5-1,1.1-1.3,1.8c0,0-4.1,14.3-3.6,15.1c0.5,0.8,1.7,1.8,1.1,2.1s-2.1-0.1-2.6,0c-0.5,0.1-0.3-11.1-0.3-11.1l-5.7,1.4V62.9z"
	/>
<ellipse cx="170.5" cy="68.6" rx="4.6" ry="2.9"/>
<ellipse cx="219.7" cy="74.9" rx="5" ry="3.5"/>
<path class="st2" d="M168.7,67.1c0,0-1.4-1.5-2-0.7c-0.2,0.4,0.5,1.6,0.5,1.6s-0.6,1.3,0,1.6c0.6,0.3,1.6-0.8,1.6-0.8
	s2.2,2.3,5.4,0.1C177.3,66.6,169.9,63.1,168.7,67.1z"/>
<rect x="184.4" y="54.4" class="st2" width="7" height="7.3"/>
<path class="st2" d="M214.7,75.5c0-0.1,0-0.1,0-0.2c0.2-0.5,0.5-0.9,0.9-1.3c0.4-0.3,0.8-0.5,1.2-0.6c0-0.5,0.2-1.1,0.5-1.5
	c0,0,2.7,0.7,2.9,2.1c0.7-0.7,1.7-1.1,2.7-1.1c-0.1,0.8-0.4,1.6-1,2.2c0,0,0.8,1.3,0.7,1.9c-1,0.2-1.9-0.2-2.4-1.1
	c0,0-0.4,0.5-0.4,0.5c-0.2,0.2-0.4,0.4-0.6,0.5c-0.9,0.6-2.1,0.6-3,0.1c-0.4-0.2-0.7-0.5-1-0.9C214.9,76,214.8,75.7,214.7,75.5z"/>
<path d="M274.8,47.3h2.9c0.6,0,1,0.4,1,1v31.6c0,0.6-0.4,1-1,1h-2.9l0,0V47.3L274.8,47.3z"/>
<path class="st2" d="M265.8,76.1c1.2,0.1,2.5-0.3,3.6-0.9c0.9,1.8,4,2.2,4.1,2.2c0.6,0.7,1.6,2.1,1.4,2.4c-0.1,0.3-0.2,0.5-0.2,0.8
	c0,0.1,0,0.3,0.1,0.3s0.1,0,0.2,0c0.1,0,0.1,0,0.2,0c0.3,0,0.6,0,0.8,0c0,0,0.2,0,0.2,0c0.1-0.1,0.2-0.3,0.2-0.5
	c-0.1-1.3-0.3-2.6-0.7-3.9c-0.4-1.2-0.7-2.4-0.8-3.6c0.1-1,0-2-0.1-3c-0.1-0.4-0.2-0.7-0.3-1.1l-0.2-0.5c-0.1-0.2-0.2-0.3-0.2-0.5
	c0-0.1,0.2-0.4,0.3-0.5c0.1-0.1,0.2-0.3,0.3-0.5c0.7-1.1,0.8-2.4,0.4-3.6c-0.3-0.7-0.4-1.5-0.2-2.3c0.3-0.7,0.6-1.5,0.8-2.2
	c0-0.7-0.1-1.3-0.4-1.9c-0.3-0.6-0.4-1.2-0.4-1.9c0.1-0.4,0.2-0.8,0.4-1.2c0.1-0.3,0.3-0.7,0-1c-0.7-0.4-1.6,1.1-1.7,1.7
	c-0.2,0.9-0.1,1.8,0.3,2.6c0.3,0.5,0.4,1.2,0.3,1.8c-0.1,0.7-0.6,1.2-0.8,2.1c-0.1,0.6-0.1,1.2,0,1.7c0.1,0.5,0.3,1,0.4,1.5
	c0.1,1-0.4,2-1.2,2.5c-0.1,0.1-0.3,0.2-0.5,0.2c-0.3,0-0.6-0.1-0.9-0.1l-1-0.1c-0.8-0.1-1.7-0.2-2.5-0.2c-0.3,0-0.5,0-0.8,0"/>
<path d="M185.4,54.4c-0.4-0.1-0.9-1.2-0.2-1.5c0.5-0.3,0.6,0.8,0.3,0.9S185.4,54.4,185.4,54.4z"/>
<path d="M190.8,62c0-1.4,0-2.8-0.3-4.1c-0.2-0.8-0.4-1.6-0.8-2.4c-0.3-0.5-0.4-1-0.3-1.6c0-0.3,0-0.6,0-0.9c0-0.2-0.1-0.5-0.2-0.7
	c-0.1-0.2-0.2-0.4-0.4-0.5c0.1-0.1,0.2-0.2,0.2-0.3c0.2-0.2,0.3-0.5,0.4-0.8c-0.3,0.2-0.5,0.2-0.9,0.5c0.4-0.4,0.7-0.9,0.8-1.4
	c-0.1,0.2-0.7,0.5-1,0.8c0.5-0.6,0.8-1.3,1-2c-0.4,0.5-0.8,1-1.3,1.3c-0.5,0.4-1,0.7-1.5,1.1c-0.4,0.2-0.8,0.5-1.1,0.9
	c-0.2,0.4-0.4,0.9-0.3,1.4c0,0.3,0.1,0.6,0.3,0.8c0.3,0.4,0.3,0.9,0.2,1.3c-0.1,0.4-0.2,0.8-0.3,1.2c-0.3,1.4-0.4,2.8-0.2,4.2
	c0.1,1.3,0,1.5,0.5,2c0.7,0.8,1.7,1.3,2.7,1.2c0.4,0,0.8-0.1,1.1-0.4c0.2-0.3,0.4-0.6,0.5-0.9C190.2,62.5,190.8,62.3,190.8,62z"/>
</svg>
